<svg width="1028" height="900" viewBox="0 0 1028 900" fill="none" xmlns="http://www.w3.org/2000/svg">
<g clip-path="url(#clip0)">
<ellipse cx="1357" cy="595.5" rx="1155" ry="1165.5" fill="#1B77AB"/>
<path d="M502 170C502 187.121 488.121 201 471 201C453.879 201 440 187.121 440 170C440 152.879 453.879 139 471 139C488.121 139 502 152.879 502 170Z" fill="#115B85"/>
<path d="M874 741C874 765.301 854.301 785 830 785C805.699 785 786 765.301 786 741C786 716.699 805.699 697 830 697C854.301 697 874 716.699 874 741Z" fill="#115B85"/>
<g clip-path="url(#clip1)">
<path d="M380.339 739.624L378.87 721.321L401.88 732.184C405.36 733.828 409.21 734.531 413.047 734.223C416.883 733.915 420.572 732.607 423.745 730.43L444.729 716.042L446.197 734.339C446.227 734.7 446.185 735.062 446.074 735.407C445.964 735.751 445.786 736.07 445.552 736.346L445.541 736.353L445.532 736.37L445.496 736.406L445.379 736.537L444.973 736.978C444.616 737.344 444.105 737.86 443.43 738.472C441.58 740.144 439.594 741.657 437.491 742.997C430.537 747.433 422.594 750.082 414.37 750.708C406.15 751.401 397.887 750.053 390.315 746.783C388.027 745.795 385.826 744.618 383.735 743.262C382.966 742.762 382.219 742.229 381.497 741.663L381.361 741.553C381.071 741.315 380.832 741.022 380.656 740.691C380.481 740.36 380.373 739.998 380.339 739.624V739.624Z" fill="#115B85"/>
<path d="M458.612 699.837L420.63 725.891C418.25 727.524 415.484 728.505 412.606 728.736C409.729 728.967 406.842 728.44 404.232 727.207L366.88 709.574L368.922 735.017C368.981 735.745 368.748 736.466 368.274 737.022C367.801 737.578 367.126 737.923 366.398 737.982C365.671 738.04 364.949 737.807 364.394 737.334C363.838 736.86 363.493 736.185 363.434 735.458L361.012 705.273C360.972 704.778 361.066 704.282 361.285 703.836C361.504 703.391 361.84 703.013 362.256 702.743L400.18 676.727C402.56 675.092 405.326 674.11 408.204 673.879C411.082 673.648 413.969 674.176 416.579 675.411L458.231 695.079C458.668 695.286 459.044 695.605 459.319 696.003C459.594 696.401 459.759 696.865 459.798 697.348C459.837 697.83 459.748 698.315 459.54 698.752C459.331 699.189 459.012 699.563 458.612 699.837V699.837Z" fill="#115B85"/>
</g>
<path d="M869.628 132.897C870.45 132.315 871.436 132.011 872.442 132.03C873.449 132.049 874.423 132.389 875.222 133.002L904.652 155.572C908.135 158.246 906.38 163.708 902.168 164.013L841.54 162.878C837.343 162.416 835.796 156.892 839.374 154.35L869.632 132.897L869.628 132.897ZM872.031 154.022C873.281 154.045 874.489 153.571 875.389 152.703C876.29 151.836 876.809 150.646 876.832 149.396C876.856 148.146 876.382 146.938 875.514 146.038C874.647 145.137 873.457 144.618 872.207 144.595C870.957 144.571 869.749 145.045 868.848 145.913C867.948 146.78 867.429 147.97 867.405 149.22C867.382 150.47 867.856 151.678 868.723 152.579C869.591 153.479 870.78 153.998 872.031 154.022V154.022ZM889.078 166.914L896.931 167.061L896.578 185.915L888.722 185.768L889.075 166.914L889.078 166.914ZM882.44 185.651L882.793 166.797L874.938 166.65L874.585 185.503L882.44 185.651ZM868.3 185.389L868.653 166.535L860.797 166.388L860.444 185.242L868.3 185.389ZM854.163 185.124L854.516 166.27L846.66 166.123L846.307 184.977L854.163 185.124ZM847.034 188.134C844.325 188.083 841.707 189.111 839.756 190.99C837.805 192.87 836.681 195.447 836.63 198.155L836.601 199.727C836.579 201.031 837.615 202.106 838.913 202.131L903.321 203.336C903.946 203.348 904.55 203.111 905 202.677C905.451 202.244 905.71 201.649 905.722 201.024L905.751 199.453C905.802 196.744 904.775 194.126 902.895 192.175C901.016 190.224 898.438 189.1 895.73 189.049L847.037 188.137L847.034 188.134Z" fill="#115B85"/>
</g>
<defs>
<clipPath id="clip0">
<rect width="1028" height="900" fill="white"/>
</clipPath>
<clipPath id="clip1">
<rect width="110.116" height="110.116" fill="white" transform="translate(352 661.809) rotate(-4.58829)"/>
</clipPath>
</defs>
</svg>
