<svg width="1028" height="900" viewBox="0 0 1028 900" fill="none" xmlns="http://www.w3.org/2000/svg">
<g clip-path="url(#clip0)">
<ellipse cx="1357" cy="595.5" rx="1155" ry="1165.5" fill="#1B77AB"/>
<path d="M610 802.5C610 811.613 602.613 819 593.5 819C584.387 819 577 811.613 577 802.5C577 793.387 584.387 786 593.5 786C602.613 786 610 793.387 610 802.5Z" fill="#115B85"/>
<path d="M734 772C734 789.121 720.121 803 703 803C685.879 803 672 789.121 672 772C672 754.879 685.879 741 703 741C720.121 741 734 754.879 734 772Z" fill="#115B85"/>
<path d="M502 170C502 187.121 488.121 201 471 201C453.879 201 440 187.121 440 170C440 152.879 453.879 139 471 139C488.121 139 502 152.879 502 170Z" fill="#115B85"/>
<path d="M874 741C874 765.301 854.301 785 830 785C805.699 785 786 765.301 786 741C786 716.699 805.699 697 830 697C854.301 697 874 716.699 874 741Z" fill="#115B85"/>
</g>
<defs>
<clipPath id="clip0">
<rect width="1028" height="900" fill="white"/>
</clipPath>
</defs>
</svg>
