<svg width="729" height="900" viewBox="0 0 729 900" fill="none" xmlns="http://www.w3.org/2000/svg">
<g clip-path="url(#clip0)">
<ellipse cx="1155" cy="595.5" rx="1155" ry="1165.5" fill="#1B77AB"/>
<path d="M408 802.5C408 811.613 400.613 819 391.5 819C382.387 819 375 811.613 375 802.5C375 793.387 382.387 786 391.5 786C400.613 786 408 793.387 408 802.5Z" fill="#115B85"/>
<path d="M532 772C532 789.121 518.121 803 501 803C483.879 803 470 789.121 470 772C470 754.879 483.879 741 501 741C518.121 741 532 754.879 532 772Z" fill="#115B85"/>
<path d="M300 170C300 187.121 286.121 201 269 201C251.879 201 238 187.121 238 170C238 152.879 251.879 139 269 139C286.121 139 300 152.879 300 170Z" fill="#115B85"/>
<path d="M672 741C672 765.301 652.301 785 628 785C603.699 785 584 765.301 584 741C584 716.699 603.699 697 628 697C652.301 697 672 716.699 672 741Z" fill="#115B85"/>
</g>
<defs>
<clipPath id="clip0">
<rect width="729" height="900" fill="white"/>
</clipPath>
</defs>
</svg>
