<svg width="1028" height="900" viewBox="0 0 1028 900" fill="none" xmlns="http://www.w3.org/2000/svg">
<g clip-path="url(#clip0)">
<ellipse cx="1357" cy="595.5" rx="1155" ry="1165.5" fill="#1B77AB"/>
<path d="M502 170C502 187.121 488.121 201 471 201C453.879 201 440 187.121 440 170C440 152.879 453.879 139 471 139C488.121 139 502 152.879 502 170Z" fill="#115B85"/>
<path d="M874 741C874 765.301 854.301 785 830 785C805.699 785 786 765.301 786 741C786 716.699 805.699 697 830 697C854.301 697 874 716.699 874 741Z" fill="#115B85"/>
<path d="M452.298 608.495L450.624 587.635L476.848 600.015C480.814 601.888 485.202 602.689 489.574 602.338C493.946 601.988 498.15 600.497 501.767 598.015L525.682 581.617L527.355 602.471C527.389 602.882 527.342 603.295 527.215 603.688C527.089 604.08 526.887 604.444 526.62 604.758L526.608 604.766L526.597 604.786L526.556 604.827L526.423 604.976L525.96 605.479C525.553 605.895 524.971 606.484 524.202 607.181C522.094 609.086 519.83 610.812 517.433 612.339C509.508 617.394 500.456 620.413 491.082 621.126C481.715 621.917 472.297 620.38 463.667 616.653C461.06 615.528 458.551 614.186 456.168 612.641C455.292 612.071 454.441 611.463 453.617 610.819L453.462 610.693C453.132 610.422 452.859 610.088 452.659 609.711C452.459 609.333 452.336 608.92 452.298 608.495V608.495Z" fill="#115B85"/>
<path d="M541.505 563.15L498.217 592.843C495.504 594.704 492.352 595.822 489.072 596.085C485.793 596.348 482.502 595.748 479.528 594.343L436.959 574.247L439.286 603.244C439.353 604.074 439.087 604.895 438.548 605.529C438.008 606.163 437.239 606.556 436.41 606.623C435.58 606.689 434.758 606.423 434.125 605.884C433.491 605.345 433.098 604.576 433.031 603.746L430.271 569.345C430.225 568.781 430.333 568.215 430.582 567.707C430.832 567.2 431.214 566.769 431.688 566.461L474.911 536.811C477.622 534.948 480.776 533.829 484.055 533.566C487.335 533.303 490.626 533.904 493.6 535.311L541.07 557.727C541.569 557.963 541.997 558.326 542.31 558.78C542.624 559.234 542.812 559.762 542.856 560.312C542.901 560.862 542.799 561.414 542.562 561.913C542.324 562.411 541.96 562.837 541.505 563.15V563.15Z" fill="#115B85"/>
<path d="M818.263 210.629C819.461 209.781 820.898 209.338 822.366 209.365C823.833 209.393 825.253 209.889 826.418 210.782L869.324 243.687C874.402 247.586 871.842 255.548 865.702 255.993L777.314 254.338C771.195 253.664 768.94 245.611 774.156 241.905L818.268 210.629L818.263 210.629ZM821.765 241.426C823.588 241.461 825.349 240.769 826.662 239.505C827.975 238.24 828.732 236.506 828.766 234.683C828.8 232.861 828.109 231.1 826.844 229.787C825.579 228.474 823.845 227.717 822.023 227.683C820.2 227.649 818.439 228.34 817.126 229.605C815.813 230.869 815.056 232.604 815.022 234.426C814.988 236.249 815.68 238.01 816.944 239.323C818.209 240.636 819.943 241.392 821.765 241.426V241.426ZM846.618 260.223L858.067 260.437L857.552 287.924L846.099 287.709L846.614 260.223L846.618 260.223ZM836.942 287.538L837.456 260.051L826.003 259.837L825.489 287.323L836.942 287.538ZM816.327 287.156L816.841 259.67L805.388 259.455L804.874 286.942L816.327 287.156ZM795.716 286.771L796.231 259.284L784.778 259.069L784.263 286.556L795.716 286.771ZM785.323 291.159C781.374 291.085 777.558 292.583 774.713 295.322C771.869 298.062 770.229 301.82 770.155 305.769L770.113 308.059C770.082 309.96 771.592 311.528 773.484 311.564L867.383 313.322C868.294 313.339 869.175 312.993 869.831 312.361C870.488 311.729 870.866 310.862 870.883 309.95L870.926 307.66C871 303.711 869.502 299.895 866.762 297.05C864.023 294.206 860.265 292.566 856.316 292.492L785.327 291.163L785.323 291.159Z" fill="#115B85"/>
</g>
<defs>
<clipPath id="clip0">
<rect width="1028" height="900" fill="white"/>
</clipPath>
</defs>
</svg>
